<svg width="16" height="14" viewBox="0 0 16 14" fill="none" xmlns="http://www.w3.org/2000/svg">
<g clip-path="url(#clip0_61385:198)">
<path d="M7.92058 0.371674C3.54688 0.371674 0 3.41444 0 7.16798C0 10.1701 2.26953 12.7171 5.41835 13.6165C5.81443 13.6791 5.959 13.4693 5.959 13.2891C5.959 13.1274 5.95207 12.7001 5.94811 12.1332C3.74492 12.5436 3.27953 11.2219 3.27953 11.2219C2.92009 10.4367 2.40024 10.2277 2.40024 10.2277C1.68036 9.80629 2.45371 9.81475 2.45371 9.81475C3.24883 9.86298 3.6667 10.5154 3.6667 10.5154C4.3737 11.5536 5.52133 11.2541 5.97286 11.0798C6.04416 10.6406 6.24913 10.3411 6.47588 10.171C4.71729 9.99921 2.86761 9.41621 2.86761 6.8126C2.86761 6.07052 3.17655 5.46383 3.68353 4.98829C3.60134 4.81652 3.33003 4.12521 3.76076 3.19021C3.76076 3.19021 4.42618 3.00744 5.9392 3.8866C6.57094 3.73598 7.24824 3.66067 7.92256 3.65813C8.5949 3.66152 9.27319 3.73598 9.90592 3.88744C11.418 3.00829 12.0824 3.19106 12.0824 3.19106C12.5141 4.1269 12.2428 4.81737 12.1616 4.98914C12.6696 5.46467 12.9755 6.07137 12.9755 6.81344C12.9755 9.42383 11.1239 9.99836 9.35933 10.1667C9.64352 10.3766 9.89701 10.7912 9.89701 11.425C9.89701 12.3337 9.88711 13.0665 9.88711 13.2891C9.88711 13.471 10.0297 13.6825 10.4317 13.6157C13.5756 12.7154 15.8431 10.1693 15.8431 7.16798C15.8431 3.41444 12.2963 0.371674 7.92058 0.371674Z" fill="#C4C4CC"/>
</g>
<defs>
<clipPath id="clip0_61385:198">
<rect width="15.8431" height="13.5385" fill="white" transform="translate(0 0.230766)"/>
</clipPath>
</defs>
</svg>
